# xmcd
# Copyright (C) 1995-1998 Ti Kan
#
# Track frame offsets:
#       150
#       54286
#       106217
#       158993
#       213969
#       263321
#
# Disc length: 4461 seconds
#
# Revision: 0
# Processed by: cddbd v1.5.2PL0 Copyright (c) Steve Scherf et al.
# Submitted via: CD-Import v1.0
#
DISCID=41116b06
DTITLE=Robert James Baker - Treibstoff
DYEAR=1900
DGENRE=
TTITLE0=Treibstoff2.1
TTITLE1=Treibstoff2.1
TTITLE2=Treibstoff2.3
TTITLE3=Treibstoff2.4
TTITLE4=Treibstoff2.5
TTITLE5=Tereibstoff2.6
EXTD=
EXTT0=
EXTT1=
EXTT2=
EXTT3=
EXTT4=
EXTT5=
PLAYORDER=
